<?xml version="1.0" standalone="no"?>
<!DOCTYPE svg PUBLIC "-//W3C//DTD SVG 20010904//EN"
 "http://www.w3.org/TR/2001/REC-SVG-20010904/DTD/svg10.dtd">
<svg version="1.0" xmlns="http://www.w3.org/2000/svg"
 width="512.000000pt" height="512.000000pt" viewBox="0 0 512.000000 512.000000"
 preserveAspectRatio="xMidYMid meet">

<g transform="translate(0.000000,512.000000) scale(0.100000,-0.100000)"
fill="#000000" stroke="none">
<path d="M556 5106 c-58 -22 -108 -66 -136 -122 l-25 -49 -5 -975 -5 -975 -42
-121 c-130 -374 -142 -824 -31 -1224 11 -41 22 -79 25 -86 3 -7 -20 -16 -64
-24 -112 -22 -155 -89 -91 -142 25 -22 50 -22 139 -2 39 9 71 14 72 12 1 -1
20 -41 42 -88 22 -47 61 -121 87 -165 27 -44 48 -85 48 -90 0 -6 -49 -32 -109
-58 -60 -27 -117 -57 -126 -67 -40 -45 -7 -124 52 -122 15 0 75 23 133 50 155
73 138 75 213 -15 71 -85 242 -254 322 -319 319 -260 723 -433 1165 -501 160
-24 520 -24 680 0 547 84 1000 312 1365 689 56 56 120 127 144 156 50 61 39
62 191 -10 58 -27 118 -50 133 -50 59 -2 92 77 52 122 -9 10 -66 40 -126 67
-60 26 -109 52 -109 58 0 5 21 46 48 90 26 44 65 118 87 165 22 47 41 87 42
88 1 2 33 -3 72 -12 89 -20 114 -20 139 1 64 54 21 121 -91 143 -42 8 -67 17
-64 24 12 31 38 131 52 197 28 128 35 180 45 328 18 264 -18 541 -103 785
l-42 121 -5 975 -5 975 -25 50 c-59 118 -202 166 -318 106 -20 -11 -203 -156
-407 -321 -203 -166 -423 -345 -488 -397 l-118 -96 -107 31 c-254 74 -419 97
-702 97 -283 0 -448 -23 -702 -97 l-107 -31 -118 96 c-65 52 -284 231 -488
397 -203 165 -387 310 -409 321 -50 27 -130 33 -180 15z m111 -149 c13 -7 225
-177 472 -377 l449 -365 -127 -65 c-69 -36 -137 -73 -151 -82 l-25 -17 -368
414 c-202 228 -367 422 -367 433 0 22 18 45 45 60 26 15 45 14 72 -1z m3862
-2 c29 -14 41 -33 41 -62 0 -8 -34 -52 -75 -99 -83 -93 -96 -121 -71 -160 30
-45 83 -48 128 -7 17 15 18 -16 17 -643 0 -623 -1 -658 -17 -634 -170 247
-312 403 -504 553 -43 33 -78 63 -78 66 0 3 86 102 190 220 188 211 201 230
184 276 -9 24 -60 46 -89 39 -15 -4 -97 -88 -222 -230 l-197 -223 -26 16 c-14
10 -82 47 -151 83 l-127 65 449 365 c247 200 459 370 472 377 29 16 42 16 76
-2z m-3678 -645 c162 -182 295 -334 297 -339 1 -4 -33 -35 -75 -68 -193 -150
-335 -306 -505 -553 -16 -24 -17 11 -17 633 -1 361 1 657 3 657 2 0 136 -149
297 -330z m1935 -61 c1045 -101 1878 -920 1943 -1909 8 -120 1 -326 -14 -417
-15 -89 -39 -193 -62 -271 l-25 -83 -36 5 c-126 20 -401 37 -687 43 -330 6
-330 6 -357 -16 -35 -28 -38 -81 -8 -111 18 -18 34 -20 193 -20 272 -1 817
-30 835 -45 11 -9 -161 -315 -176 -315 -4 0 -50 15 -102 34 -168 60 -542 163
-773 211 -60 13 -72 13 -96 0 -47 -24 -54 -69 -18 -109 18 -20 48 -31 157 -56
244 -55 711 -189 733 -209 10 -9 -99 -136 -190 -222 -343 -322 -742 -510
-1258 -591 -104 -16 -466 -16 -570 0 -462 73 -806 220 -1141 489 -96 78 -249
229 -293 291 l-21 30 69 25 c104 39 439 133 633 178 143 33 177 44 196 65 36
40 28 85 -19 109 -24 13 -37 13 -99 0 -224 -47 -583 -145 -767 -209 -56 -20
-104 -36 -107 -36 -13 0 -184 307 -174 314 19 15 576 45 836 46 159 0 174 2
192 20 30 30 27 83 -7 111 -28 22 -28 22 -363 16 -291 -6 -582 -24 -687 -43
l-32 -6 -20 69 c-98 330 -110 701 -32 1027 183 766 850 1387 1666 1550 221 45
459 57 681 35z"/>
<path d="M1530 2708 c-51 -13 -139 -76 -176 -125 -18 -23 -42 -68 -54 -100
-19 -52 -21 -74 -18 -213 3 -142 5 -160 29 -210 33 -70 109 -146 179 -179 46
-22 69 -26 145 -26 77 0 98 4 147 27 73 34 142 103 176 176 25 53 27 68 30
212 3 139 1 162 -18 213 -24 63 -47 81 -93 74 -23 -3 -38 2 -56 20 -15 13 -45
33 -68 44 -26 13 -43 28 -43 38 0 10 -10 27 -23 39 -26 24 -91 28 -157 10z
m153 -152 c42 -17 69 -59 71 -107 1 -47 -17 -81 -56 -103 -81 -48 -181 8 -181
103 0 46 24 84 66 105 40 19 59 20 100 2z"/>
<path d="M3380 2708 c-51 -13 -139 -76 -176 -125 -18 -23 -42 -68 -54 -100
-19 -51 -21 -73 -18 -213 3 -144 5 -159 30 -212 34 -73 103 -142 176 -176 49
-23 70 -27 147 -27 76 0 99 4 145 26 70 33 146 109 179 179 23 50 26 69 29
202 6 222 -26 306 -108 295 -32 -4 -43 -1 -61 19 -12 13 -42 33 -66 45 -26 13
-43 28 -43 38 0 10 -10 27 -23 39 -26 24 -91 28 -157 10z m153 -152 c116 -48
78 -228 -48 -228 -125 0 -164 171 -52 226 40 19 59 20 100 2z"/>
<path d="M2299 1757 c-81 -55 -105 -156 -53 -232 44 -65 181 -231 214 -258 56
-48 144 -48 200 0 33 27 170 193 214 258 52 76 28 177 -53 232 -33 22 -41 23
-261 23 -220 0 -228 -1 -261 -23z"/>
<path d="M1805 1068 c-58 -31 -60 -77 -4 -130 68 -64 215 -128 298 -128 20 0
41 -4 47 -8 6 -4 14 -44 18 -89 8 -97 23 -146 71 -217 74 -112 184 -169 325
-169 141 0 251 57 325 169 48 71 63 120 71 217 4 45 12 85 18 89 6 4 27 8 47
8 124 0 339 123 339 193 0 32 -29 64 -65 73 -20 5 -39 -2 -80 -31 -30 -20 -82
-48 -117 -62 -54 -22 -73 -25 -154 -21 -89 4 -97 6 -201 58 -102 52 -112 55
-183 55 -71 0 -81 -3 -183 -55 -104 -52 -112 -54 -200 -58 -108 -5 -168 13
-264 78 -61 42 -76 46 -108 28z m680 -295 c7 -29 59 -57 91 -49 47 12 64 40
64 109 l0 63 81 -40 81 -39 -4 -86 c-5 -98 -27 -151 -80 -196 -48 -41 -89 -55
-158 -55 -69 0 -110 14 -158 55 -53 45 -75 98 -80 196 l-4 86 78 39 79 39 3
-50 c1 -27 4 -60 7 -72z"/>
</g>
</svg>
