<?xml version="1.0" standalone="no"?>
<!DOCTYPE svg PUBLIC "-//W3C//DTD SVG 20010904//EN"
 "http://www.w3.org/TR/2001/REC-SVG-20010904/DTD/svg10.dtd">
<svg version="1.0" xmlns="http://www.w3.org/2000/svg"
 width="512.000000pt" height="512.000000pt" viewBox="0 0 512.000000 512.000000"
 preserveAspectRatio="xMidYMid meet">

<g transform="translate(0.000000,512.000000) scale(0.100000,-0.100000)"
fill="#000000" stroke="none">
<path d="M715 4330 c-174 -25 -376 -130 -462 -239 l-23 -29 83 19 c270 61 454
19 551 -125 56 -84 87 -201 106 -406 20 -212 31 -295 52 -365 24 -82 38 -111
74 -154 l26 -31 48 69 c63 89 143 175 230 246 l70 57 -39 38 c-51 50 -94 113
-124 185 -25 60 -35 98 -83 319 -36 168 -68 247 -122 307 -88 98 -216 134
-387 109z"/>
<path d="M4200 4327 c-79 -19 -131 -49 -182 -106 -54 -60 -86 -139 -122 -307
-48 -221 -58 -259 -83 -319 -30 -72 -73 -135 -124 -185 l-38 -37 63 -52 c81
-65 182 -172 237 -250 24 -34 47 -61 51 -61 19 0 71 91 93 164 23 80 35 156
55 376 19 205 50 322 106 406 97 144 281 186 551 125 l83 -19 -23 29 c-38 49
-149 131 -223 165 -147 69 -329 98 -444 71z"/>
<path d="M1943 2379 c-138 -29 -167 -196 -50 -283 44 -33 123 -29 171 8 134
101 42 310 -121 275z"/>
<path d="M3111 2379 c-129 -27 -163 -193 -55 -275 99 -76 244 -1 244 125 0
100 -90 171 -189 150z"/>
<path d="M376 2151 c-78 -11 -115 -82 -65 -127 20 -18 40 -19 278 -20 141 -1
283 -6 316 -12 33 -6 101 -18 150 -27 159 -28 342 -74 484 -120 76 -25 145
-45 155 -45 27 0 66 46 66 78 0 51 -27 70 -165 117 -233 78 -449 126 -675 150
-146 15 -453 18 -544 6z"/>
<path d="M4190 2144 c-219 -25 -448 -76 -665 -149 -138 -47 -165 -66 -165
-117 0 -33 39 -78 68 -78 10 0 65 16 123 35 146 50 299 89 479 124 224 42 374
55 579 47 170 -6 175 -6 198 16 53 49 17 117 -68 129 -84 12 -421 8 -549 -7z"/>
<path d="M1040 1719 c-317 -49 -526 -117 -657 -216 -37 -27 -44 -72 -18 -110
27 -38 59 -34 161 19 260 135 572 183 974 148 58 -5 139 -12 181 -16 74 -6 76
-6 97 21 29 37 28 76 -3 105 -19 18 -46 26 -117 37 -116 17 -531 25 -618 12z"/>
<path d="M3635 1724 c-16 -2 -81 -9 -144 -16 -95 -10 -118 -15 -142 -36 -35
-29 -38 -68 -7 -107 24 -31 8 -30 263 -5 131 12 367 12 480 0 205 -23 350 -65
509 -148 104 -54 136 -57 162 -16 9 12 14 38 12 56 -3 28 -12 39 -68 76 -188
123 -542 204 -882 201 -84 -1 -166 -3 -183 -5z"/>
<path d="M2478 1652 c-11 -155 -104 -256 -258 -281 -74 -12 -110 -40 -110 -83
0 -46 39 -78 97 -78 108 0 211 47 301 136 l52 53 53 -53 c89 -89 192 -136 300
-136 58 0 97 32 97 78 0 43 -36 71 -110 83 -154 25 -247 126 -258 281 l-5 68
-77 0 -77 0 -5 -68z"/>
<path d="M1620 1409 c-239 -27 -515 -114 -714 -225 -114 -64 -199 -127 -294
-218 -69 -66 -82 -84 -82 -110 0 -42 32 -76 71 -76 23 0 45 13 87 53 117 109
217 179 348 245 138 69 340 135 446 147 29 3 78 10 108 15 30 6 118 14 194 18
128 8 140 10 157 31 26 32 24 82 -4 109 -21 20 -33 22 -133 21 -60 -1 -143 -5
-184 -10z"/>
<path d="M3183 1398 c-28 -30 -30 -77 -4 -109 17 -21 29 -23 153 -30 480 -27
809 -154 1100 -426 42 -40 64 -53 87 -53 39 0 71 34 71 76 0 56 -190 223 -370
325 -244 138 -558 224 -865 236 -150 5 -150 5 -172 -19z"/>
</g>
</svg>
