<svg width="157" height="157" viewBox="0 0 157 157" fill="none" xmlns="http://www.w3.org/2000/svg">
<path d="M81.5634 14.6854L79.6038 16.0028C79.1231 16.3259 78.9954 16.9776 79.3185 17.4583L80.6358 19.4179C80.959 19.8986 81.6106 20.0263 82.0913 19.7032L84.051 18.3859C84.5317 18.0627 84.6594 17.4111 84.3362 16.9304L83.0189 14.9707C82.6958 14.49 82.0441 14.3623 81.5634 14.6854Z" fill="#F5F5F5"/>
<path d="M23.9553 45.9957L21.9956 47.313C21.5149 47.6361 21.3872 48.2878 21.7103 48.7685L23.0277 50.7281C23.3508 51.2088 24.0024 51.3366 24.4831 51.0134L26.4428 49.6961C26.9235 49.3729 27.0512 48.7213 26.7281 48.2406L25.4108 46.2809C25.0876 45.8002 24.436 45.6725 23.9553 45.9957Z" fill="#F5F5F5"/>
<path d="M103.89 25.478L104.587 25.6287L106.546 23.9394L106.838 22.6143C106.838 22.6143 107.928 22.787 107.419 24.4983C106.911 26.2096 107.146 25.7951 107.146 25.7951C107.146 25.7951 109.423 26.3038 109.573 26.5361C109.68 26.7026 109.259 28.8849 109.03 30.0655C108.977 30.3568 108.828 30.6218 108.605 30.8173C108.383 31.0128 108.101 31.1274 107.806 31.1425C107.721 31.1437 107.637 31.1352 107.554 31.1174C106.986 30.9949 104.176 29.9116 104.176 29.9116L102.973 29.6479L103.89 25.478Z" fill="#E0E0E0"/>
<path d="M101.981 24.6741L101.409 29.3182L102.599 29.5788L103.579 25.1231L101.981 24.6741Z" fill="#E0E0E0"/>
<path d="M117.379 36.6124L118.265 37.523C118.313 37.5721 118.373 37.6089 118.438 37.6302C118.504 37.6515 118.574 37.6567 118.642 37.6455L119.898 37.4319C119.977 37.4176 120.059 37.4261 120.134 37.4565C120.209 37.4869 120.274 37.538 120.321 37.6038C120.368 37.6696 120.395 37.7474 120.4 37.8281C120.404 37.9089 120.386 37.9893 120.347 38.0599L119.753 39.1809C119.721 39.2418 119.704 39.3097 119.704 39.3787C119.704 39.4477 119.721 39.5157 119.753 39.5766L120.344 40.7038C120.384 40.7743 120.404 40.8551 120.4 40.9364C120.396 41.0178 120.369 41.0962 120.321 41.1625C120.274 41.2287 120.209 41.2799 120.133 41.3099C120.057 41.34 119.974 41.3476 119.894 41.3318L118.638 41.1152C118.57 41.1031 118.5 41.1079 118.435 41.1293C118.369 41.1506 118.31 41.1878 118.262 41.2376L117.376 42.1451C117.321 42.2024 117.251 42.2431 117.174 42.2624C117.097 42.2817 117.015 42.2789 116.94 42.2544C116.864 42.2298 116.797 42.1844 116.746 42.1235C116.695 42.0625 116.662 41.9884 116.651 41.9096L116.469 40.6536C116.458 40.5864 116.431 40.5229 116.391 40.4682C116.35 40.4136 116.297 40.3695 116.236 40.3396L115.1 39.7775C115.028 39.7428 114.968 39.6886 114.925 39.6211C114.883 39.5537 114.861 39.4756 114.861 39.396C114.861 39.3164 114.883 39.2384 114.925 39.1709C114.968 39.1034 115.028 39.0492 115.1 39.0145L116.24 38.4524C116.301 38.4232 116.354 38.3793 116.395 38.3245C116.436 38.2698 116.462 38.2058 116.472 38.1384L116.657 36.8824C116.663 36.8014 116.692 36.7237 116.74 36.6587C116.789 36.5936 116.855 36.5439 116.932 36.5155C117.008 36.487 117.09 36.481 117.17 36.4982C117.249 36.5154 117.322 36.555 117.379 36.6124Z" fill="#EBEBEB"/>
<path d="M41.8562 16.0862L42.4842 16.7331C42.5188 16.7674 42.5609 16.7933 42.6073 16.8085C42.6536 16.8238 42.7028 16.8281 42.7511 16.821L43.6366 16.6703C43.6905 16.6659 43.7446 16.6755 43.7937 16.6983C43.8428 16.721 43.8852 16.756 43.9168 16.7999C43.9484 16.8438 43.9681 16.8951 43.974 16.9489C43.9799 17.0026 43.9719 17.057 43.9506 17.1067L43.5361 17.898C43.513 17.941 43.5009 17.989 43.5009 18.0377C43.5009 18.0865 43.513 18.1345 43.5361 18.1775L43.96 18.9813C43.9813 19.031 43.9893 19.0854 43.9834 19.1392C43.9775 19.1929 43.9578 19.2442 43.9262 19.2882C43.8946 19.3321 43.8522 19.3671 43.8031 19.3898C43.754 19.4125 43.6999 19.4221 43.646 19.4178L42.7605 19.2639C42.7123 19.2568 42.663 19.2611 42.6167 19.2763C42.5704 19.2916 42.5282 19.3174 42.4936 19.3518L41.8656 19.9798C41.8245 20.0153 41.7749 20.0396 41.7216 20.0502C41.6683 20.0608 41.6132 20.0574 41.5616 20.0403C41.51 20.0232 41.4638 19.993 41.4273 19.9527C41.3909 19.9124 41.3656 19.8633 41.3538 19.8103L41.2251 18.9216C41.2172 18.8731 41.1981 18.827 41.1692 18.7872C41.1403 18.7474 41.1024 18.7149 41.0586 18.6924L40.2517 18.2936C40.2048 18.2658 40.166 18.2263 40.139 18.179C40.1121 18.1316 40.0979 18.0781 40.0979 18.0236C40.0979 17.9691 40.1121 17.9156 40.139 17.8682C40.166 17.8209 40.2048 17.7814 40.2517 17.7536L41.0586 17.3548C41.102 17.3326 41.1396 17.3006 41.1685 17.2614C41.1974 17.2221 41.2168 17.1767 41.2251 17.1287L41.3538 16.2369C41.3687 16.1871 41.3958 16.1418 41.4325 16.105C41.4693 16.0682 41.5146 16.0412 41.5644 16.0262C41.6142 16.0113 41.6669 16.0089 41.7179 16.0194C41.7688 16.0299 41.8163 16.0528 41.8562 16.0862Z" fill="#EBEBEB"/>
<path d="M21.0066 31.2713C21.4837 31.2232 21.9289 31.0101 22.2655 30.6686C22.602 30.3272 22.8087 29.8788 22.8498 29.4012C22.8909 28.9235 22.7638 28.4465 22.4905 28.0526C22.2172 27.6587 21.8149 27.3726 21.3531 27.2438C20.8913 27.115 20.399 27.1516 19.9613 27.3473C19.5236 27.5429 19.168 27.8853 18.956 28.3153C18.744 28.7453 18.6888 29.2359 18.8001 29.7022C18.9114 30.1686 19.182 30.5814 19.5654 30.8693C16.4003 30.4549 15.6624 33.6357 15.6624 33.6357L22.853 35.6767C22.853 35.6767 23.9017 32.5461 21.0066 31.2713Z" fill="#E0E0E0"/>
<path d="M67.1112 150.343C73.5519 150.343 78.7731 149.948 78.7731 149.461C78.7731 148.974 73.5519 148.579 67.1112 148.579C60.6705 148.579 55.4492 148.974 55.4492 149.461C55.4492 149.948 60.6705 150.343 67.1112 150.343Z" fill="#E0E0E0"/>
<path d="M148.101 146.359C148.101 146.406 118.708 146.44 82.4754 146.44C46.2429 146.44 16.8274 146.406 16.8274 146.359C16.8274 146.311 46.2115 146.277 82.4754 146.277C118.739 146.277 148.101 146.324 148.101 146.359Z" fill="#263238"/>
<path d="M58.2094 98.2255C58.2094 98.2255 33.4034 71.6579 30.4769 68.1788C29.2209 66.6653 27.315 62.7309 27.0732 61.4153C26.8931 60.4536 27.0207 59.4596 27.4378 58.5746C27.8549 57.6896 28.5404 56.9586 29.3968 56.4855C33.3155 54.3346 43.1374 51.4615 67.6231 51.4615C88.2529 51.4615 97.5536 53.8447 101.739 56.0898C102.838 56.6844 103.711 57.6246 104.221 58.7649C104.732 59.9053 104.853 61.1822 104.565 62.3981C104.119 64.2939 103.19 66.042 101.868 67.4723L73.451 98.2443L70.9107 119.763H61.946L58.2094 98.2255Z" fill="#455A64"/>
<path d="M99.4972 58.1842C99.7353 58.2816 99.942 58.4428 100.094 58.6499C100.247 58.857 100.34 59.1022 100.362 59.3584C100.384 59.6147 100.336 59.8722 100.221 60.1026C100.107 60.3331 99.9315 60.5276 99.7139 60.6648C93.8484 64.4328 86.4725 65.4376 79.4326 65.8992C63.6353 66.9322 38.9643 66.3042 31.6387 59.9583C31.5259 59.8625 31.4404 59.7385 31.3911 59.599C31.3417 59.4595 31.3301 59.3093 31.3575 59.1639C31.385 59.0184 31.4504 58.8828 31.5472 58.7709C31.644 58.6589 31.7688 58.5746 31.9087 58.5265C34.4616 57.641 42.029 54.6831 65.4471 54.8589C85.9168 55.0128 95.6193 56.6111 99.4972 58.1842Z" fill="#263238"/>
<path d="M73.9125 97.9272C73.8677 97.9617 73.8193 97.9912 73.7681 98.0151L73.3442 98.238C73.122 98.3552 72.8934 98.46 72.6597 98.552C72.3865 98.6651 72.0819 98.8095 71.7177 98.9257L71.165 99.1235C70.9735 99.1895 70.7662 99.2397 70.5559 99.3025C70.1382 99.4344 69.6767 99.5286 69.1962 99.6353C68.1439 99.8353 67.0769 99.9477 66.006 99.9713C64.9342 99.9762 63.8639 99.8911 62.8063 99.717C62.3228 99.6228 61.8643 99.5411 61.4373 99.4187C61.2238 99.3622 61.0165 99.3182 60.8093 99.2554L60.2535 99.0733C59.8956 98.9665 59.5878 98.8284 59.3115 98.7216C59.0745 98.6301 58.8428 98.5253 58.6176 98.4076L58.1874 98.1941C58.1352 98.1733 58.0865 98.1447 58.043 98.1093C58.098 98.1232 58.1516 98.1421 58.2031 98.1658L58.6427 98.3511C58.8342 98.4359 59.0666 98.5332 59.3461 98.6305C59.6255 98.7279 59.9332 98.8566 60.2881 98.9445L60.8438 99.1141C61.0354 99.1738 61.2426 99.2146 61.453 99.268C61.8738 99.3842 62.3353 99.4595 62.8158 99.5506C64.9153 99.8962 67.0593 99.8685 69.1491 99.4689C69.6296 99.3653 70.0911 99.2774 70.5025 99.1549C70.7129 99.0953 70.9201 99.045 71.1116 98.9822L71.6611 98.8001C72.016 98.6902 72.3237 98.552 72.6031 98.4484C72.8826 98.3448 73.1118 98.238 73.3002 98.1501L73.7367 97.9523C73.7938 97.9356 73.853 97.9272 73.9125 97.9272Z" fill="#263238"/>
<path d="M101.83 58.9849C101.83 58.9849 101.783 59.0289 101.683 59.1074L101.24 59.4496L100.511 60.0023L99.469 60.6868C98.4996 61.2884 97.4927 61.8275 96.4546 62.3007C95.077 62.923 93.6574 63.4476 92.2062 63.8707C90.4524 64.3817 88.67 64.7885 86.8682 65.0891C84.9214 65.4031 82.827 65.6637 80.6196 65.8552C76.1985 66.2226 71.3283 66.4832 66.2101 66.4581C63.651 66.4581 61.1516 66.3859 58.7432 66.2446C56.3348 66.1033 54.0112 65.9306 51.8101 65.6637C47.9077 65.2353 44.0299 64.6065 40.1921 63.7797C37.5756 63.3066 35.0707 62.3481 32.8068 60.9537C32.1905 60.5758 31.6231 60.1234 31.1175 59.6066C30.9894 59.4688 30.8729 59.3207 30.7689 59.1639C30.6999 59.0571 30.6685 59.0006 30.6685 59.0006C30.8142 59.205 30.9725 59.4 31.1426 59.5846C31.6538 60.0887 32.223 60.5303 32.8382 60.9003C35.1072 62.2676 37.6086 63.2054 40.2172 63.6666C44.0563 64.4795 47.9339 65.0989 51.8352 65.5224C54.0332 65.7736 56.3537 65.9588 58.762 66.0939C61.1704 66.2289 63.6636 66.3011 66.2195 66.3042C71.3315 66.3042 76.2016 66.075 80.6133 65.7139C82.8113 65.5287 84.9119 65.2837 86.8556 64.9635C88.6567 64.6705 90.4391 64.272 92.1936 63.7703C93.6406 63.3546 95.0579 62.8416 96.4358 62.2348C97.4728 61.7679 98.4805 61.2384 99.4533 60.6491L100.48 59.974L101.215 59.4339L101.67 59.1042L101.83 58.9849Z" fill="#263238"/>
<path d="M101.381 67.9873L101.212 68.0721L100.706 68.3076L98.7595 69.1993L97.3528 69.8273C96.8316 70.0503 96.2538 70.2606 95.6415 70.5024C94.4043 70.9671 93.0227 71.5669 91.4308 72.0473L88.9502 72.8574C88.52 73.0081 88.071 73.118 87.6157 73.2405L86.2246 73.611L84.7802 74.0098L84.0423 74.2045L83.2825 74.3646L80.1425 75.024C75.4542 75.8846 70.7054 76.3739 65.9402 76.4873C61.1694 76.5331 56.4028 76.1897 51.6878 75.4605L48.5258 74.8796L47.7628 74.7414C47.5116 74.688 47.2666 74.6221 47.0217 74.5624L45.571 74.2076L44.1737 73.8654C43.7153 73.7492 43.26 73.655 42.8298 73.5105L40.3367 72.7412C38.7353 72.2922 37.3474 71.7019 36.1071 71.2497C35.4791 71.0111 34.9107 70.8101 34.3895 70.5903L32.9796 69.9623L31.0171 69.08L30.5116 68.8476L30.342 68.7629L30.5179 68.8319L31.0297 69.0517L32.9922 69.9027L34.4083 70.5307C34.9296 70.7473 35.5105 70.9452 36.1291 71.1775C37.3851 71.6203 38.7572 72.2012 40.3586 72.6439L42.8518 73.4006C43.282 73.5451 43.7373 73.6393 44.1926 73.7523L45.593 74.0883L47.0374 74.44C47.2855 74.4965 47.5304 74.5624 47.7816 74.6158L48.5415 74.754L51.6815 75.3255C56.3999 76.0403 61.1682 76.3742 65.9402 76.324C70.7006 76.2115 75.4449 75.7275 80.1299 74.8764L83.2699 74.2233L84.0266 74.0663L84.7645 73.8716L86.2027 73.4917L87.5968 73.1275C88.049 73.005 88.5011 72.8982 88.9282 72.7475L91.4088 71.95C93.0007 71.479 94.3855 70.8855 95.6227 70.4302C96.2507 70.1916 96.8158 69.9875 97.3371 69.7677L98.7501 69.1397L100.709 68.2793L101.218 68.0595C101.319 68.0093 101.381 67.9873 101.381 67.9873Z" fill="#263238"/>
<path d="M63.2396 119.744C63.227 119.712 63.2186 119.678 63.2145 119.643C63.2145 119.571 63.1863 119.474 63.1611 119.351C63.1172 119.085 63.0512 118.701 62.9665 118.205C62.8 117.197 62.5583 115.74 62.2537 113.903C61.6571 110.214 60.8124 105.011 59.8265 98.9257L59.8453 98.9665C57.506 96.4168 54.9532 93.6097 52.3595 90.6173C49.4362 87.2449 46.7484 83.9479 44.4216 80.8581C43.2567 79.3164 42.1891 77.8186 41.2 76.4119C40.2109 75.0052 39.316 73.6832 38.5938 72.399C37.9215 71.2563 37.4829 69.9916 37.3032 68.6781C37.1882 67.6803 37.3131 66.6694 37.6675 65.7296C37.8921 65.1419 38.2364 64.6072 38.6786 64.1596L38.8858 63.9649L39.0491 63.8393C39.1339 63.7703 39.181 63.7389 39.181 63.7389C39.1422 63.7787 39.1013 63.8164 39.0585 63.8519C39.0145 63.8864 38.9612 63.9304 38.9015 63.9838L38.7037 64.1847C38.2746 64.6361 37.9423 65.1704 37.7271 65.7547C37.3883 66.6852 37.2742 67.6826 37.3943 68.6655C37.5803 69.9651 38.0221 71.2148 38.6943 72.3425C39.4039 73.6142 40.3428 74.9173 41.313 76.3334C42.2833 77.7495 43.3729 79.2285 44.5441 80.7671C46.874 83.8474 49.5681 87.1413 52.482 90.5011C55.0756 93.4935 57.6253 96.3007 59.9583 98.8535H59.974V98.91C60.938 104.998 61.7607 110.214 62.3447 113.897C62.6305 115.734 62.8566 117.194 63.0136 118.205C63.0858 118.701 63.1455 119.085 63.1831 119.351C63.202 119.477 63.2145 119.577 63.2271 119.65L63.2396 119.744Z" fill="#263238"/>
<path d="M96.9727 54.1273C96.9727 54.1462 96.8095 54.1273 96.53 54.1807C96.1368 54.2444 95.7698 54.4187 95.4718 54.6831C95.0397 55.0913 94.6929 55.5812 94.4513 56.1244C94.1447 56.7898 93.8917 57.4786 93.6946 58.1842C93.255 59.6851 93.0038 61.0856 92.806 62.0935C92.7212 62.5739 92.649 62.9758 92.5956 63.2898C92.5776 63.4385 92.5439 63.5848 92.4951 63.7263C92.4948 63.5769 92.5074 63.4277 92.5328 63.2804C92.5673 62.9947 92.6176 62.5833 92.6929 62.0715C92.8938 60.745 93.1759 59.4322 93.5376 58.1402C93.7362 57.425 93.9968 56.7284 94.3163 56.0584C94.5718 55.5015 94.9395 55.0033 95.3965 54.5952C95.7153 54.3257 96.1083 54.1593 96.5237 54.1179C96.6344 54.1073 96.7459 54.1073 96.8566 54.1179C96.9319 54.1148 96.9727 54.121 96.9727 54.1273Z" fill="#263238"/>
<path d="M112.283 49.4833C112.283 49.4833 109.303 44.318 107.812 44.6131C106.789 44.8637 105.833 45.3318 105.008 45.9853L108.801 50.4441L112.283 49.4833Z" fill="#FFBE9D"/>
<path d="M130.297 63.0826L118.887 57.9613L112.233 47.841L108.138 49.9637L115.879 63.7577L128.605 68.5839L130.297 63.0826Z" fill="#2ED327"/>
<path d="M105.887 44.9397C106.705 45.1281 107.562 45.025 108.312 44.6481C109.061 44.2712 109.656 43.6442 109.992 42.8756C110.328 42.1069 110.386 41.245 110.154 40.4387C109.922 39.6324 109.415 38.9324 108.722 38.4599C108.029 37.9873 107.192 37.7718 106.357 37.8507C105.522 37.9295 104.74 38.2977 104.148 38.8917C103.555 39.4856 103.189 40.268 103.112 41.1034C103.035 41.9388 103.253 42.7749 103.727 43.467C98.7028 41.0053 95.7041 45.8628 95.7041 45.8628L106.474 53.2764C106.474 53.2764 109.972 48.67 105.887 44.9397Z" fill="#263238"/>
<path d="M114.481 144.804L114.795 141.956L119.989 142.478L119.731 146.663H119.398C117.916 146.597 111.862 146.224 110.92 145.825C109.847 145.382 114.481 144.804 114.481 144.804Z" fill="#455A64"/>
<path d="M119.81 146.547C119.778 146.55 119.747 146.55 119.715 146.547H119.452L118.478 146.494C117.656 146.44 116.519 146.352 115.269 146.23C114.02 146.107 112.886 145.969 112.07 145.856L111.106 145.721L110.842 145.677C110.812 145.676 110.782 145.669 110.754 145.658H110.845L111.109 145.69L112.076 145.806C112.895 145.903 114.026 146.035 115.276 146.158C116.525 146.28 117.659 146.377 118.481 146.44L119.452 146.516L119.719 146.538L119.81 146.547Z" fill="#263238"/>
<path d="M112.604 145.975C112.579 145.81 112.533 145.649 112.469 145.495C112.388 145.349 112.29 145.213 112.177 145.09C112.336 145.169 112.461 145.303 112.528 145.467C112.616 145.621 112.643 145.802 112.604 145.975Z" fill="#263238"/>
<path d="M114.258 145.335C114.243 145.335 114.177 145.244 114.111 145.112C114.061 145.038 114.031 144.953 114.023 144.864C114.038 144.864 114.104 144.955 114.17 145.084C114.236 145.212 114.274 145.326 114.258 145.335Z" fill="#263238"/>
<path d="M114.714 145.15C114.714 145.15 114.623 145.096 114.538 145.005C114.453 144.914 114.4 144.829 114.412 144.817C114.425 144.804 114.503 144.87 114.588 144.961C114.673 145.052 114.726 145.137 114.714 145.15Z" fill="#263238"/>
<path d="M115.037 144.672C115.037 144.691 114.911 144.694 114.754 144.672C114.66 144.672 114.567 144.653 114.481 144.616C114.573 144.594 114.669 144.594 114.761 144.616C114.856 144.614 114.95 144.634 115.037 144.672Z" fill="#263238"/>
<path d="M115.166 144.327C115.07 144.379 114.96 144.4 114.852 144.387C114.742 144.394 114.632 144.368 114.538 144.311C114.642 144.301 114.747 144.301 114.852 144.311C114.957 144.307 115.062 144.312 115.166 144.327Z" fill="#263238"/>
<path d="M114.126 144.851C114.01 144.858 113.893 144.845 113.781 144.814C113.659 144.787 113.54 144.748 113.426 144.697C113.355 144.671 113.287 144.635 113.225 144.591C113.187 144.563 113.16 144.521 113.15 144.475C113.147 144.449 113.152 144.422 113.164 144.399C113.175 144.376 113.193 144.356 113.216 144.343C113.353 144.291 113.505 144.289 113.643 144.337C113.782 144.385 113.9 144.481 113.976 144.606C114.023 144.678 114.053 144.76 114.064 144.845C114.072 144.876 114.072 144.908 114.064 144.939C114.04 144.828 113.998 144.722 113.938 144.625C113.869 144.527 113.773 144.451 113.662 144.405C113.597 144.378 113.527 144.364 113.456 144.364C113.385 144.364 113.315 144.378 113.25 144.405C113.194 144.44 113.21 144.506 113.266 144.547C113.323 144.588 113.384 144.623 113.448 144.65C113.56 144.701 113.676 144.743 113.794 144.776C113.982 144.826 114.126 144.842 114.126 144.851Z" fill="#263238"/>
<path d="M114.035 144.861C114 144.784 113.994 144.697 114.02 144.616C114.039 144.528 114.079 144.446 114.136 144.377C114.17 144.327 114.218 144.287 114.273 144.261C114.328 144.235 114.389 144.224 114.45 144.23C114.484 144.241 114.512 144.265 114.529 144.297C114.546 144.328 114.55 144.365 114.541 144.399C114.526 144.453 114.501 144.503 114.466 144.547C114.413 144.618 114.352 144.682 114.283 144.738C114.224 144.794 114.152 144.835 114.073 144.858C114.073 144.858 114.148 144.801 114.252 144.704C114.314 144.645 114.369 144.581 114.418 144.512C114.472 144.443 114.516 144.318 114.418 144.292C114.321 144.267 114.24 144.352 114.18 144.415C114.124 144.476 114.084 144.549 114.061 144.628C114.043 144.705 114.035 144.783 114.035 144.861Z" fill="#263238"/>
<path d="M119.847 145.068C119.847 145.068 119.694 145.037 119.452 145.043C119.133 145.044 118.822 145.137 118.555 145.309C118.287 145.482 118.074 145.727 117.941 146.016C117.838 146.236 117.813 146.39 117.803 146.387C117.794 146.384 117.803 146.349 117.803 146.28C117.822 146.183 117.851 146.088 117.891 145.997C118.018 145.693 118.234 145.435 118.511 145.256C118.788 145.077 119.113 144.986 119.442 144.996C119.541 144.997 119.639 145.009 119.734 145.033C119.774 145.038 119.812 145.049 119.847 145.068Z" fill="#263238"/>
<path d="M119.515 142.801C119.516 143.168 119.496 143.535 119.452 143.9C119.431 144.267 119.388 144.633 119.323 144.996C119.325 144.629 119.346 144.262 119.386 143.897C119.407 143.529 119.45 143.163 119.515 142.801Z" fill="#263238"/>
<path d="M117.172 145.84C116.91 145.874 116.646 145.874 116.384 145.84C116.122 145.827 115.862 145.781 115.612 145.702C115.612 145.683 115.96 145.74 116.39 145.778C116.82 145.815 117.172 145.822 117.172 145.84Z" fill="#263238"/>
<path d="M118.218 145.941C118.218 145.957 118.183 146.013 118.139 146.089C118.095 146.164 118.067 146.236 118.051 146.233C118.036 146.23 118.029 146.145 118.083 146.057C118.136 145.969 118.208 145.928 118.218 145.941Z" fill="#263238"/>
<path d="M118.661 145.492C118.661 145.492 118.632 145.558 118.573 145.608C118.513 145.658 118.453 145.687 118.441 145.674C118.428 145.661 118.469 145.608 118.529 145.558C118.588 145.508 118.648 145.476 118.661 145.492Z" fill="#263238"/>
<path d="M119.248 145.322C119.248 145.341 119.172 145.322 119.091 145.354C119.009 145.385 118.949 145.41 118.934 145.395C118.918 145.379 118.975 145.313 119.075 145.291C119.176 145.269 119.254 145.307 119.248 145.322Z" fill="#263238"/>
<path d="M119.659 145.256C119.659 145.275 119.631 145.3 119.584 145.313C119.537 145.325 119.499 145.313 119.493 145.313C119.486 145.313 119.521 145.272 119.568 145.26C119.615 145.247 119.656 145.241 119.659 145.256Z" fill="#263238"/>
<path d="M96.1531 49.9072C95.3941 49.044 94.6823 48.1405 94.021 47.2005C93.2548 45.9947 93.3616 45.9225 93.5154 45.8534C93.9299 45.6682 94.9441 47.9195 95.0038 47.3041C95.0635 46.6887 93.4338 44.6979 93.886 44.5221C94.4606 44.2928 95.478 46.673 95.5784 46.8676C95.6789 47.0623 95.9615 46.9147 95.861 46.7452C95.7166 46.5003 94.2659 43.8846 94.8248 43.6523C95.1388 43.5235 95.3021 44.1139 95.3021 44.1139C95.3021 44.1139 96.4828 46.6635 96.7434 46.5474C97.004 46.4312 96.3666 44.9051 96.1154 44.4059C95.8642 43.9066 95.9961 43.5895 96.3038 43.6554C96.511 43.6994 97.3211 45.2034 97.5598 45.6996C97.7984 46.1957 98.4296 47.5836 98.6619 46.6416C98.8943 45.6996 99.4249 45.0527 99.6824 44.9774C99.9399 44.902 100.135 45.2443 99.9493 45.4829C99.7736 45.7608 99.6353 46.0606 99.538 46.3747C99.4531 46.6255 99.4096 46.8885 99.4092 47.1534C99.4092 47.3795 99.4092 47.5836 99.4281 47.7814L99.5191 49.7156L97.3054 51.2322L96.1531 49.9072Z" fill="#FFBE9D"/>
<path d="M122.193 109.222L119.898 144.311L114.56 143.721C114.56 143.721 115.518 109.495 115.769 109.495C116.02 109.495 122.193 109.222 122.193 109.222Z" fill="#FFBE9D"/>
<path d="M133.773 108.214L139.764 143.002L135.029 143.721L126.737 109.869L133.773 108.214Z" fill="#FFBE9D"/>
<path d="M126.03 48.491L126.178 61.5534C126.187 62.2368 125.93 62.8969 125.461 63.3944C124.992 63.8918 124.349 64.1876 123.666 64.2193C123.32 64.2357 122.974 64.1838 122.647 64.0665C122.321 63.9491 122.021 63.7686 121.765 63.5353C121.509 63.302 121.301 63.0205 121.153 62.7068C121.006 62.3932 120.922 62.0535 120.906 61.7073L120.742 58.3757C120.742 58.3757 118.372 58.762 117.898 57.0569C117.584 55.9642 117.898 48.1582 117.898 48.1582L126.03 48.491Z" fill="#FFBE9D"/>
<path d="M131.456 88.1618L137.13 116.331L127.358 117.27L124.67 97.6069L123.619 117.634L113.954 116.802L115.574 86.843L131.456 88.1618Z" fill="#263238"/>
<path d="M139.871 142.179L140.213 146.396L134.756 146.233L134.891 142.405L139.871 142.179Z" fill="#455A64"/>
<path d="M137.366 142.107C137.318 142.657 137.325 143.21 137.388 143.759C137.393 144.311 137.455 144.861 137.573 145.401C137.621 144.851 137.615 144.298 137.554 143.749C137.548 143.197 137.485 142.646 137.366 142.107Z" fill="#263238"/>
<path d="M134.756 145.564C135.025 145.58 135.295 145.573 135.563 145.542L137.507 145.423C138.267 145.373 138.954 145.313 139.45 145.253C139.721 145.237 139.988 145.191 140.248 145.115C139.979 145.095 139.709 145.103 139.441 145.137L137.497 145.256C136.737 145.307 136.05 145.366 135.554 145.426C135.283 145.442 135.016 145.488 134.756 145.564Z" fill="#263238"/>
<path d="M131.139 77.6616V84.6104L131.899 90.3818L115.329 88.862L116.039 77.3225C116.148 74.6221 116.199 71.8087 116.265 69.3186C115.137 68.8916 104.647 64.9226 103.934 64.819C103.221 64.7154 96.31 52.0172 96.31 52.0172C96.0933 50.4943 100.222 49.5052 100.222 49.5052C100.222 49.5052 106.634 59.1764 107.178 59.7197C107.721 60.2629 117.75 62.0213 117.75 62.0213C120.346 61.495 122.983 61.2018 125.631 61.1452C127.236 61.1206 128.79 61.7065 129.98 62.7844C131.169 63.8622 131.904 65.3516 132.037 66.9511C132.25 69.3595 132.115 72.8103 131.139 77.6616Z" fill="#2ED327"/>
<path d="M108.829 46.6918C108.643 46.7374 108.469 46.8262 108.323 46.9511C108.177 47.076 108.062 47.2335 107.988 47.4109C107.383 46.9331 106.629 46.6859 105.859 46.7138C105.947 47.1561 106.203 47.5474 106.572 47.8065C106.923 48.0828 107.325 48.2869 107.677 48.5601C108.048 48.8142 108.311 49.1986 108.412 49.6371" fill="#FFBE9D"/>
<path d="M116.949 46.4123C116.321 46.4783 115.938 47.2539 116.086 47.8787C116.233 48.5036 116.733 48.9809 117.251 49.3577C117.207 49.6316 117.234 49.9124 117.331 50.1725C117.427 50.4327 117.589 50.6635 117.801 50.8424C118.013 51.0214 118.268 51.1423 118.541 51.1936C118.814 51.2448 119.095 51.2246 119.358 51.1349C119.307 51.184 119.268 51.243 119.242 51.3082C119.215 51.3733 119.203 51.4432 119.205 51.5134C119.207 51.5836 119.224 51.6526 119.254 51.7161C119.284 51.7796 119.327 51.8361 119.38 51.8822C119.492 51.9703 119.622 52.0325 119.761 52.0645C119.9 52.0966 120.044 52.0976 120.183 52.0675C120.466 52.0267 120.736 51.923 121.016 51.8728C121.332 51.8077 121.66 51.8414 121.956 51.9695C122.252 52.0976 122.502 52.3138 122.67 52.5887C122.966 53.1602 122.633 54.008 121.995 54.0896C121.852 54.0927 121.709 54.1085 121.568 54.1368C121.485 54.1769 121.411 54.2345 121.352 54.3056C121.292 54.3767 121.249 54.4598 121.225 54.5491C121.2 54.6384 121.195 54.7319 121.21 54.8232C121.225 54.9146 121.259 55.0018 121.311 55.0788C121.422 55.2285 121.567 55.3507 121.732 55.4362C121.898 55.5216 122.082 55.568 122.268 55.5717C122.067 55.8368 121.978 56.1697 122.018 56.4998C122.059 56.83 122.227 57.1313 122.486 57.3398C122.745 57.5483 123.075 57.6475 123.406 57.6164C123.737 57.5853 124.043 57.4263 124.259 57.1731C124.329 57.3942 124.445 57.5979 124.599 57.7709C124.753 57.9439 124.943 58.0822 125.154 58.1767C125.366 58.2711 125.595 58.3196 125.827 58.3189C126.059 58.3182 126.288 58.2684 126.499 58.1727C126.71 58.077 126.899 57.9375 127.052 57.7636C127.205 57.5897 127.32 57.3853 127.388 57.1638C127.457 56.9424 127.477 56.7089 127.449 56.4788C127.421 56.2488 127.344 56.0274 127.223 55.8292C127.536 55.6903 127.809 55.4742 128.015 55.2012C128.222 54.9282 128.356 54.6071 128.405 54.2682C128.453 53.9293 128.415 53.5836 128.294 53.2635C128.172 52.9434 127.971 52.6593 127.71 52.438C128.101 52.134 128.448 51.7767 128.74 51.3767C128.885 51.1748 128.985 50.9445 129.035 50.7009C129.084 50.4573 129.081 50.206 129.026 49.9637C128.962 49.7237 128.817 49.5132 128.615 49.3678C128.414 49.2225 128.168 49.1512 127.92 49.1661C128.049 48.9873 128.125 48.7768 128.142 48.5575C128.159 48.3382 128.115 48.1185 128.016 47.9223C127.916 47.7261 127.765 47.561 127.578 47.4448C127.391 47.3286 127.176 47.2658 126.956 47.2633C126.919 46.8404 126.743 46.4416 126.457 46.1282C126.171 45.8147 125.79 45.604 125.372 45.5284C124.954 45.4528 124.523 45.5164 124.145 45.7096C123.767 45.9028 123.463 46.2148 123.28 46.5976C123.232 46.0167 122.573 45.6242 122.002 45.7184C121.718 45.7867 121.454 45.9205 121.232 46.1092C121.009 46.2979 120.834 46.5362 120.72 46.8048C120.753 46.6347 120.75 46.4598 120.713 46.2907C120.675 46.1216 120.604 45.9618 120.504 45.821C120.403 45.6802 120.275 45.5613 120.127 45.4714C119.979 45.3816 119.814 45.3226 119.642 45.2982C119.471 45.2738 119.296 45.2844 119.129 45.3293C118.962 45.3742 118.806 45.4526 118.67 45.5597C118.533 45.6667 118.42 45.8003 118.337 45.9522C118.254 46.1042 118.203 46.2714 118.186 46.4437C118.218 46.3658 118.229 46.2813 118.219 46.1979C118.208 46.1146 118.177 46.0352 118.128 45.9673C118.078 45.8993 118.013 45.845 117.937 45.8093C117.861 45.7737 117.777 45.7579 117.693 45.7635C117.609 45.7692 117.528 45.7959 117.458 45.8414C117.387 45.8868 117.329 45.9494 117.289 46.0234C117.25 46.0973 117.229 46.1801 117.23 46.2641C117.231 46.348 117.253 46.4304 117.295 46.5034" fill="#263238"/>
<path d="M121.254 53.5087C121.254 53.4836 121.345 53.5087 121.458 53.4459C121.532 53.4232 121.598 53.3787 121.646 53.3183C121.694 53.2579 121.724 53.1844 121.73 53.1072C121.736 53.03 121.719 52.9528 121.68 52.8855C121.642 52.8183 121.584 52.7641 121.515 52.73C121.411 52.6641 121.326 52.6641 121.323 52.639C121.32 52.6138 121.414 52.573 121.565 52.639C121.671 52.6707 121.762 52.7376 121.825 52.8286C121.887 52.9195 121.916 53.0291 121.908 53.139C121.9 53.249 121.854 53.3528 121.778 53.4332C121.703 53.5135 121.602 53.5657 121.493 53.581C121.333 53.5872 121.245 53.5244 121.254 53.5087Z" fill="#EB996E"/>
<path d="M119.825 51.9199L119.891 53.8039C119.888 53.884 119.904 53.9638 119.938 54.0363C119.978 54.0916 120.036 54.1314 120.102 54.1486C120.168 54.1658 120.238 54.1594 120.3 54.1305C120.362 54.0991 120.417 54.0548 120.46 54.0007C120.504 53.9466 120.536 53.8838 120.554 53.8165C120.591 53.6854 120.612 53.5505 120.617 53.4145C120.668 52.7641 120.801 52.1226 121.012 51.5054C120.791 51.4301 120.549 51.4402 120.334 51.5337C120.119 51.6272 119.947 51.7973 119.851 52.011" fill="#263238"/>
<path d="M120.727 70.9389C120.711 70.9797 119.333 70.5087 117.646 69.8838C115.96 69.259 114.604 68.7189 114.62 68.6781C115.665 68.975 116.694 69.3261 117.703 69.73C118.731 70.0809 119.74 70.4844 120.727 70.9389Z" fill="#263238"/>
<path d="M121.251 63.1799C121.362 63.2134 121.468 63.262 121.565 63.3244C121.852 63.4845 122.118 63.6796 122.357 63.9053C122.713 64.2411 123.009 64.635 123.233 65.0702C123.507 65.606 123.662 66.1955 123.685 66.7972C123.707 67.3974 123.607 67.9958 123.39 68.5556C123.214 69.018 122.954 69.4439 122.623 69.8116C122.404 70.0647 122.115 70.2462 121.791 70.3329C121.704 70.3545 121.614 70.363 121.524 70.358C121.462 70.358 121.43 70.3517 121.43 70.3391C121.547 70.325 121.662 70.303 121.776 70.2732C122.075 70.1668 122.339 69.9799 122.539 69.7331C122.844 69.3713 123.084 68.959 123.248 68.5148C123.45 67.9721 123.543 67.3948 123.521 66.8161C123.499 66.2377 123.354 65.6707 123.098 65.1519C122.886 64.7274 122.609 64.3395 122.275 64.0026C121.96 63.6971 121.617 63.4217 121.251 63.1799Z" fill="#263238"/>
<path d="M121.028 63.2867C120.845 63.2655 120.665 63.2287 120.488 63.1768L119.034 62.822L114.243 61.6162L109.442 60.4293L107.988 60.0682C107.809 60.0302 107.632 59.9798 107.46 59.9175C107.643 59.9327 107.825 59.9632 108.003 60.0085C108.349 60.0745 108.851 60.1812 109.47 60.3225C110.704 60.5926 112.409 60.9914 114.28 61.4592C116.152 61.9271 117.844 62.3761 119.062 62.7152L120.507 63.1234C120.684 63.1659 120.858 63.2204 121.028 63.2867Z" fill="#263238"/>
<path d="M118.906 88.6453C118.894 88.5875 118.889 88.5285 118.89 88.4695C118.89 88.3376 118.89 88.1743 118.89 87.9734C118.89 87.5401 118.89 86.9152 118.89 86.1428C118.906 84.5979 118.956 82.4627 119.059 80.1077C119.163 77.7527 119.298 75.6206 119.414 74.082C119.474 73.3096 119.524 72.6879 119.568 72.2577C119.587 72.0567 119.606 71.8934 119.618 71.7647C119.62 71.7069 119.625 71.6492 119.634 71.592C119.643 71.6492 119.643 71.7075 119.634 71.7647C119.634 71.8966 119.634 72.063 119.612 72.264C119.587 72.7161 119.552 73.3347 119.512 74.0883C119.424 75.63 119.307 77.7621 119.198 80.1171C119.088 82.4721 119.025 84.601 118.978 86.1459C118.956 86.8995 118.937 87.5181 118.921 87.9734C118.921 88.1743 118.906 88.3376 118.899 88.4695C118.909 88.5275 118.911 88.5867 118.906 88.6453Z" fill="#263238"/>
<path d="M123.302 61.2771C122.759 61.4672 122.234 61.7036 121.732 61.9836C121.258 62.3107 120.813 62.6784 120.403 63.0826C120.718 62.5815 121.143 62.1585 121.646 61.8457C122.149 61.533 122.716 61.3385 123.305 61.2771H123.302Z" fill="#263238"/>
<path d="M126.639 61.23C126.252 61.2812 125.862 61.3084 125.471 61.3116C124.752 61.3493 123.76 61.4121 122.667 61.5252C121.574 61.6382 120.588 61.7795 119.876 61.8894C119.493 61.9658 119.106 62.0204 118.717 62.0527C118.817 62.0068 118.923 61.9751 119.031 61.9585C119.229 61.9082 119.515 61.8454 119.869 61.7764C120.576 61.6351 121.565 61.4781 122.661 61.3619C123.757 61.2457 124.758 61.2017 125.487 61.1955C125.848 61.1955 126.14 61.1955 126.344 61.1955C126.443 61.1967 126.542 61.2083 126.639 61.23Z" fill="#263238"/>
<path d="M129.836 95.9898C129.836 96.0338 128.012 96.4294 125.754 96.8784C123.496 97.3274 121.637 97.6509 121.628 97.6069C121.619 97.5629 123.452 97.1642 125.71 96.7183C127.968 96.2724 129.827 95.9427 129.836 95.9898Z" fill="#455A64"/>
<path d="M114.924 116.808C114.88 116.808 115.433 110.619 116.161 102.992C116.89 95.3649 117.515 89.1948 117.559 89.198C117.603 89.2011 117.053 95.3838 116.325 103.014C115.596 110.644 114.968 116.808 114.924 116.808Z" fill="#455A64"/>
<path d="M115.847 116.924C115.8 116.924 116.299 110.663 116.956 102.948C117.612 95.2331 118.186 88.9813 118.23 88.9845C118.274 88.9876 117.778 95.2456 117.119 102.961C116.459 110.676 115.891 116.927 115.847 116.924Z" fill="#455A64"/>
<path d="M67.9933 134.756C68.9252 134.385 69.698 133.7 70.1785 132.819C70.6589 131.938 70.8167 130.918 70.6246 129.933C70.4325 128.948 69.9026 128.062 69.1265 127.426C68.3503 126.791 67.3766 126.446 66.3735 126.452C65.3703 126.458 64.4008 126.815 63.6323 127.459C62.8639 128.104 62.3447 128.997 62.1644 129.984C61.9842 130.971 62.1542 131.989 62.6452 132.864C63.1361 133.739 63.9171 134.415 64.8533 134.775C58.2405 135.761 58.5733 142.594 58.5733 142.594L74.2262 142.565C74.2262 142.565 74.5622 135.648 67.9933 134.756Z" fill="#2ED327"/>
<path d="M54.6861 51.4301L54.3218 51.9073C51.7313 55.4053 54.4066 58.404 55.0064 59.0006L63.0008 50.9779C62.3984 50.3961 61.6965 49.9271 60.9284 49.5932C59.1857 48.8553 57.5027 49.0876 55.9264 50.284L55.4554 50.6388L55.6846 50.0987C55.9612 49.4424 56.0021 48.7105 55.8003 48.0274C55.5985 47.3443 55.1665 46.7522 54.5776 46.3516C53.9886 45.9509 53.2792 45.7665 52.5697 45.8297C51.8603 45.8929 51.1946 46.1997 50.6857 46.6981C50.4026 46.9812 50.1791 47.3183 50.0287 47.6894C49.8782 48.0605 49.8037 48.458 49.8097 48.8584C49.8108 49.3707 49.9392 49.8747 50.1835 50.325C50.4278 50.7753 50.7802 51.1578 51.209 51.4381C51.6378 51.7184 52.1296 51.8876 52.6401 51.9306C53.1506 51.9736 53.6638 51.889 54.1334 51.6844L54.6861 51.4301Z" fill="#2ED327"/>
<path d="M88.8617 31.2556C88.5494 30.8928 88.1202 30.6506 87.6483 30.5707C87.1763 30.4908 86.6913 30.5782 86.277 30.818C85.8627 31.0577 85.5451 31.4347 85.3792 31.8837C85.2133 32.3327 85.2095 32.8255 85.3684 33.2771C85.5273 33.7286 85.8389 34.1104 86.2494 34.3566C86.66 34.6028 87.1436 34.6978 87.6167 34.6253C88.0899 34.5527 88.5228 34.3172 88.8407 33.9593C89.1586 33.6015 89.3415 33.1438 89.3579 32.6654C90.8305 35.4914 93.8637 34.2825 93.8637 34.2825L91.4177 27.2175C91.4177 27.2175 88.2338 28.1501 88.8617 31.2556Z" fill="#455A64"/>
<path d="M84.317 48.0468L80.5104 42.3841C80.1872 41.9034 79.5356 41.7756 79.0549 42.0988L73.3922 45.9054C72.9115 46.2285 72.7838 46.8802 73.1069 47.3609L76.9135 53.0236C77.2367 53.5042 77.8883 53.632 78.369 53.3088L84.0317 49.5022C84.5124 49.1791 84.6401 48.5275 84.317 48.0468Z" fill="#2ED327"/>
<path d="M53.2269 29.9585L50.6897 28.4937C50.1881 28.2041 49.5467 28.376 49.2571 28.8776L47.7923 31.4147C47.5027 31.9163 47.6746 32.5577 48.1762 32.8474L50.7133 34.3122C51.2149 34.6018 51.8563 34.4299 52.1459 33.9283L53.6107 31.3912C53.9004 30.8895 53.7285 30.2481 53.2269 29.9585Z" fill="#2ED327"/>
<path d="M70.2259 38.958C69.8366 37.9092 69.0955 35.9813 68.9291 35.8996C68.6999 35.7897 66.6463 36.5025 66.6463 36.5025C66.6463 36.5025 66.662 36.9421 66.2287 35.3407C65.7954 33.7393 64.8471 34.1349 64.8471 34.1349L65.2647 35.325L64.5394 37.6235L63.9114 37.8401L65.227 41.5893L66.3072 41.2125C66.3072 41.2125 69.0578 40.6944 69.5697 40.5154C69.6434 40.4874 69.7139 40.4517 69.78 40.4087C70.0075 40.253 70.1755 40.0247 70.2565 39.7612C70.3374 39.4977 70.3267 39.2146 70.2259 38.958Z" fill="#263238"/>
<path d="M62.0117 38.1416L63.8298 42.0948L64.9005 41.718L63.4938 37.7145L62.0117 38.1416Z" fill="#263238"/>
<path d="M36.0062 36.11L35.105 34.8132L35.2401 34.4018L32.7689 33.5823L32.5334 34.2951C32.5334 34.2951 31.7013 35.931 31.5914 36.267C31.5756 36.3169 31.5661 36.3686 31.5631 36.4209C31.5526 36.6011 31.6038 36.7795 31.7082 36.9268C31.8127 37.0741 31.9642 37.1813 32.1377 37.231C32.838 37.4476 34.1348 37.837 34.2447 37.7805C34.3546 37.724 34.8476 36.3549 34.8476 36.3549C34.8476 36.3549 34.6121 36.1885 35.6169 36.603C36.6217 37.0175 36.7944 36.3706 36.7944 36.3706L36.0062 36.11Z" fill="#455A64"/>
<path d="M35.8491 33.2871L33.0671 32.6466L32.8347 33.3531L35.4755 34.2291L35.8491 33.2871Z" fill="#455A64"/>
<path d="M65.3464 15.4017C65.2424 15.3147 65.1246 15.2457 64.9979 15.1976C64.8135 15.1384 64.6148 15.1417 64.4326 15.207C64.2503 15.2723 64.0947 15.3959 63.9899 15.5587C63.8733 15.8155 63.8092 16.0931 63.8015 16.3751C63.7576 16.6891 63.7105 17.0219 63.6602 17.3862C63.61 17.7504 63.5535 18.1366 63.4938 18.5448C63.4578 18.7711 63.3406 18.9765 63.1641 19.1226C63.072 19.1919 62.9718 19.2499 62.8658 19.2953L62.5518 19.4492L61.255 20.0772L60.5705 20.4226C60.461 20.4801 60.3663 20.5622 60.2938 20.6624C60.2213 20.7626 60.1731 20.8783 60.1528 21.0003C60.1311 21.1258 60.1387 21.2547 60.1752 21.3768C60.2117 21.4988 60.2761 21.6107 60.3632 21.7037C60.4535 21.7957 60.5599 21.8702 60.6772 21.9235L61.0603 22.1119L62.6837 22.922C62.8218 22.9942 62.9537 23.0445 63.1013 23.1355C63.2358 23.233 63.3437 23.3625 63.4153 23.5123C63.4816 23.6645 63.5209 23.8271 63.5315 23.9927C63.5535 24.1466 63.5754 24.3067 63.6006 24.4606L63.88 26.3917C63.8962 26.5444 63.9556 26.6894 64.0512 26.8095C64.1469 26.9297 64.2749 27.02 64.4201 27.0699C64.5667 27.1222 64.7254 27.1304 64.8766 27.0936C65.0278 27.0568 65.1649 26.9765 65.271 26.8627L66.7249 25.3743L67.0922 25.0007C67.2215 24.8605 67.3882 24.7602 67.5727 24.7118C67.7536 24.6712 67.9412 24.6712 68.1222 24.7118L68.6277 24.7997L70.6185 25.1451C70.7671 25.1664 70.9188 25.1453 71.056 25.0842C71.1932 25.0231 71.3104 24.9245 71.394 24.7997C71.4776 24.6783 71.5265 24.5363 71.5353 24.3891C71.5442 24.2419 71.5127 24.0951 71.4443 23.9645L70.5902 22.294C70.452 22.0177 70.3045 21.7696 70.1757 21.4807C70.1224 21.3298 70.1073 21.168 70.1318 21.0097C70.1613 20.8586 70.2177 20.714 70.2982 20.5827C70.5714 20.074 70.832 19.5779 71.0863 19.1006C71.3407 18.6233 71.7143 18.1586 71.5259 17.7033C71.4868 17.5956 71.4264 17.497 71.3481 17.4134C71.2698 17.3297 71.1755 17.2628 71.0706 17.2166C70.9707 17.1761 70.8644 17.1538 70.7566 17.1507C70.6439 17.1596 70.5318 17.1742 70.4206 17.1946L67.9652 17.5997C67.7798 17.6225 67.5918 17.5898 67.4251 17.5055C67.2807 17.4243 67.152 17.318 67.0451 17.1915L66.4517 16.5635L65.6259 15.7L65.4186 15.4739C65.393 15.4491 65.3698 15.4217 65.3495 15.3923C65.379 15.4125 65.4063 15.4357 65.4312 15.4614C65.4846 15.5179 65.5599 15.5901 65.651 15.678L66.4894 16.5195L67.0922 17.1287C67.1923 17.2559 67.316 17.3625 67.4565 17.4427C67.6062 17.5201 67.7764 17.5486 67.9432 17.5243L70.3924 17.0973C70.5093 17.0729 70.6279 17.0571 70.7472 17.0502C70.875 17.0497 71.0017 17.0731 71.1209 17.1193C71.2473 17.1688 71.3616 17.2451 71.4558 17.343C71.55 17.4408 71.622 17.5579 71.6667 17.6861C71.7115 17.8144 71.7279 17.9508 71.715 18.086C71.7021 18.2212 71.6601 18.352 71.5919 18.4695L71.2213 19.176L70.4426 20.6612C70.3645 20.7739 70.3137 20.9031 70.2941 21.0388C70.2745 21.1745 70.2866 21.3129 70.3296 21.4431C70.4458 21.6943 70.6028 21.9674 70.7378 22.2343L71.5919 23.8923C71.674 24.0481 71.7121 24.2234 71.7022 24.3994C71.6922 24.5753 71.6345 24.7452 71.5353 24.8908C71.435 25.0432 71.2926 25.1632 71.1254 25.2363C70.9582 25.3093 70.7733 25.3322 70.5933 25.3021L68.5963 24.9599L68.0908 24.8751C67.9332 24.8345 67.7679 24.8345 67.6103 24.8751C67.4543 24.9137 67.3133 24.9979 67.2053 25.1169L66.8379 25.4937L65.3841 26.982C65.2556 27.1167 65.091 27.2115 64.9099 27.2549C64.7289 27.2984 64.5392 27.2887 64.3636 27.2269C64.1944 27.1611 64.0467 27.0497 63.9369 26.905C63.8272 26.7603 63.7597 26.5881 63.7419 26.4074C63.6508 25.7511 63.5566 25.1074 63.4655 24.4763C63.4446 24.3151 63.4226 24.1581 63.3996 24.0053C63.3914 23.8561 63.3574 23.7095 63.2991 23.572C63.237 23.4453 63.1428 23.3371 63.0259 23.258C62.9129 23.1826 62.7559 23.1198 62.6272 23.0507L61.032 22.2563L60.649 22.0648C60.5112 22.0059 60.3864 21.9206 60.2816 21.8136C60.1791 21.7054 60.1037 21.5744 60.0617 21.4313C60.0196 21.2883 60.0121 21.1374 60.0398 20.9909C60.0647 20.8497 60.1215 20.7161 60.2058 20.6002C60.2902 20.4843 60.3998 20.3892 60.5265 20.3221L61.2173 19.9798L62.5173 19.3518C62.7199 19.2626 62.9151 19.1576 63.1013 19.0378C63.2645 18.9136 63.3763 18.7336 63.4153 18.5323C63.475 18.1241 63.5346 17.7379 63.5911 17.3736C63.6477 17.0094 63.6979 16.6765 63.745 16.3657C63.7605 16.0753 63.8319 15.7906 63.9554 15.5273C64.0875 15.329 64.2911 15.1895 64.5237 15.1379C64.6917 15.0986 64.8675 15.1095 65.0293 15.1693C65.1274 15.2057 65.2179 15.26 65.2962 15.3295C65.3144 15.3525 65.3312 15.3766 65.3464 15.4017Z" fill="#263238"/>
<path d="M37.052 44.6822L37.9374 45.5928C37.9858 45.6419 38.0453 45.6787 38.1109 45.7C38.1765 45.7213 38.2462 45.7265 38.3142 45.7153L39.5702 45.5017C39.6499 45.4867 39.7322 45.4949 39.8074 45.5252C39.8825 45.5556 39.9474 45.6068 39.9943 45.6729C40.0413 45.739 40.0683 45.8172 40.0721 45.8981C40.076 45.9791 40.0565 46.0595 40.0161 46.1297L39.4227 47.2539C39.391 47.315 39.3745 47.3828 39.3745 47.4517C39.3745 47.5205 39.391 47.5884 39.4227 47.6495L40.013 48.7736C40.0523 48.8443 40.0708 48.9247 40.0662 49.0054C40.0617 49.0862 40.0343 49.164 39.9873 49.2298C39.9402 49.2956 39.8755 49.3466 39.8005 49.3771C39.7256 49.4075 39.6435 49.416 39.564 49.4016L38.308 49.185C38.2399 49.1731 38.17 49.1781 38.1044 49.1995C38.0387 49.2208 37.9792 49.2579 37.9312 49.3074L37.052 50.1929C36.9961 50.2491 36.9257 50.2887 36.8486 50.3071C36.7716 50.3256 36.6909 50.3223 36.6156 50.2975C36.5403 50.2727 36.4734 50.2275 36.4224 50.1669C36.3714 50.1063 36.3382 50.0327 36.3266 49.9543L36.1445 48.6983C36.1338 48.6311 36.1071 48.5675 36.0666 48.5129C36.0262 48.4582 35.9732 48.4141 35.9121 48.3843L34.7755 47.8222C34.7048 47.7866 34.6453 47.7321 34.6038 47.6648C34.5623 47.5974 34.5403 47.5198 34.5403 47.4407C34.5403 47.3616 34.5623 47.284 34.6038 47.2166C34.6453 47.1492 34.7048 47.0947 34.7755 47.0592L35.9153 46.4971C35.9768 46.4679 36.0302 46.424 36.0708 46.3692C36.1113 46.3144 36.1377 46.2505 36.1476 46.1831L36.3329 44.9271C36.3433 44.8488 36.3753 44.775 36.4254 44.7139C36.4755 44.6529 36.5417 44.607 36.6164 44.5816C36.6912 44.5561 36.7716 44.552 36.8485 44.5698C36.9255 44.5876 36.9959 44.6265 37.052 44.6822Z" fill="#263238"/>
<path d="M73.0583 57.5562L73.253 58.8122C73.2641 58.8801 73.2916 58.9442 73.3332 58.9989C73.3748 59.0536 73.4292 59.0973 73.4916 59.1262L74.6346 59.6757C74.7054 59.7107 74.765 59.7649 74.8067 59.832C74.8484 59.8992 74.8705 59.9766 74.8705 60.0556C74.8705 60.1347 74.8484 60.2121 74.8067 60.2793C74.765 60.3464 74.7054 60.4005 74.6346 60.4356L73.501 61.0133C73.4408 61.0436 73.3888 61.0879 73.3494 61.1426C73.3101 61.1973 73.2845 61.2606 73.275 61.3273L73.1054 62.5833C73.0944 62.6616 73.0618 62.7353 73.0113 62.7962C72.9609 62.8571 72.8946 62.9027 72.8197 62.9281C72.7448 62.9535 72.6644 62.9576 72.5873 62.94C72.5102 62.9224 72.4396 62.8837 72.3832 62.8283L71.4851 61.9271C71.4363 61.8789 71.3765 61.8431 71.311 61.8229C71.2454 61.8027 71.1759 61.7986 71.1083 61.8109L69.8523 62.0401C69.7723 62.056 69.6894 62.0486 69.6134 62.0187C69.5374 61.9889 69.4716 61.938 69.4237 61.8719C69.3758 61.8058 69.3478 61.7274 69.3431 61.6459C69.3383 61.5644 69.3571 61.4833 69.397 61.4121L69.9748 60.2817C70.0072 60.2208 70.0242 60.1529 70.0242 60.0839C70.0242 60.0149 70.0072 59.947 69.9748 59.8861L69.3939 58.7965C69.3541 58.7267 69.3349 58.6471 69.3386 58.5668C69.3423 58.4866 69.3687 58.409 69.4148 58.3432C69.4608 58.2774 69.5246 58.2261 69.5988 58.1951C69.6729 58.1642 69.7543 58.155 69.8335 58.1685L71.0895 58.3695C71.1573 58.3801 71.2267 58.3742 71.2917 58.3524C71.3567 58.3305 71.4156 58.2933 71.4632 58.2439L72.3392 57.3238C72.3949 57.2695 72.4643 57.2314 72.54 57.2136C72.6157 57.1959 72.6949 57.1991 72.7689 57.223C72.8429 57.2469 72.909 57.2906 72.96 57.3493C73.011 57.408 73.045 57.4796 73.0583 57.5562Z" fill="#455A64"/>
</svg>
